<?xml version="1.0" encoding="UTF-8"?>
<svg id="Layer_1" xmlns="http://www.w3.org/2000/svg" xmlns:xlink="http://www.w3.org/1999/xlink" viewBox="0 0 2046 322.35">
  <defs>
    <style>
      .cls-1 {
        fill: url(#linear-gradient-2);
      }

      .cls-1, .cls-2, .cls-3, .cls-4 {
        fill-rule: evenodd;
      }

      .cls-2 {
        fill: url(#linear-gradient-3);
      }

      .cls-5 {
        fill: #a82d2d;
      }

      .cls-3 {
        fill: url(#linear-gradient);
      }

      .cls-4 {
        fill: #545454;
      }

      .cls-6 {
        fill: #353535;
      }
    </style>
    <linearGradient id="linear-gradient" x1="37.19" y1="119.6" x2="519.63" y2="119.6" gradientUnits="userSpaceOnUse">
      <stop offset=".12" stop-color="#c94744"/>
      <stop offset="1" stop-color="#8f1715"/>
    </linearGradient>
    <linearGradient id="linear-gradient-2" x1="381.33" y1="177.3" x2="566.72" y2="177.3" xlink:href="#linear-gradient"/>
    <linearGradient id="linear-gradient-3" x1="624.6" y1="130.32" x2="693.39" y2="130.32" xlink:href="#linear-gradient"/>
  </defs>
  <g>
    <g id="Roof">
      <path class="cls-3" d="M519.63,0l-239.09,18.82L37.19,239.21l52.36-.1c68.58-26.14,145.51-40.61,234.16-38.76L519.63,0Z"/>
      <path class="cls-1" d="M566.72,132l-116.56,8.09-68.83,65.73c39.47,4.07,75.89,10.18,111.57,16.78l73.82-90.6Z"/>
      <polygon class="cls-2" points="693.39 111.87 624.6 111.87 658.16 148.78 693.39 111.87"/>
    </g>
    <g id="Shadows">
      <polygon class="cls-4" points="523.96 25.5 483.05 63.22 554.24 139.18 566.72 132 623.54 189.09 648.79 157.77 523.96 25.5"/>
      <polygon class="cls-4" points="571.24 157.24 554.24 174.24 616.39 243.3 652.52 243.3 571.24 157.24"/>
      <path class="cls-4" d="M636.58,202.39l69.59-74.9,130.3,128.23c2.67,2.63,4.1,2.7.22,4.45-12.41,5.62-40.16,9.27-56.16,5.97l-97.74-97.74-37.05,41.47-9.17-7.48Z"/>
      <path class="cls-4" d="M0,292.9c339.34-233.68,813.69,124.69,936.55-96.95C790.82,516.36,332.3,103.27,0,292.9Z"/>
      <path class="cls-4" d="M493.5,78.66h-21.36v25.77h21.36v-25.77h0ZM472.15,108.39l.55,20.57h21.36l-.55-20.57h-21.36ZM468.19,78.66h-1.64l-19.72,20.39v5.38h21.36v-25.77h0ZM446.84,108.39l.55,20.57h21.35l-.55-20.57h-21.36Z"/>
    </g>
  </g>
  <g>
    <g id="Name">
      <path class="cls-5" d="M1026.2,151.49c.03,7.24-.02,13.66-.15,19.28-.12,5.61-.52,10.59-1.19,14.96-.64,4.35-1.75,8.22-3.28,11.66-1.56,3.41-3.7,6.52-6.49,9.36-1.48,1.46-2.79,2.64-3.95,3.53-1.16.89-2.2,1.58-3.16,2.1-1.23.64-2.1,1.16-2.57,1.55-.49.4-.72.77-.69,1.11.03.37.15.67.37.86.25.2.52.32.82.32.39,0,.84-.07,1.38-.22.52-.15,1.06-.37,1.58-.67,1.56-.74,2.94-1.41,4.15-2.05,1.21-.62,2.3-1.21,3.26-1.8,4.74-2.94,8.79-5.98,12.17-9.14,3.36-3.16,6.12-6.35,8.27-9.53,2.13-3.21,3.7-6.32,4.74-9.34.99-2.79,1.73-5.65,2.25-8.62.52-2.96.86-5.93,1.04-8.91.2-2.96.27-5.88.27-8.69-.02-3.73-.1-7.33-.22-10.84-.12-3.51-.2-6.87-.22-10.05v-38.87c0-3.16,0-5.83.03-7.98,0-2.15.03-3.92.05-5.36,0-1.43.05-2.67.07-3.7.05-1.01.1-2,.15-2.91.1-2.57.57-4.54,1.36-5.9.79-1.33,2.17-2.2,4.12-2.54.86-.15,1.58-.27,2.2-.34.62-.08,1.31-.1,2.1-.1.89,0,1.56-.1,2-.27.44-.2.67-.57.67-1.06,0-.52-.27-.86-.79-1.06-.52-.2-1.28-.27-2.32-.27-1.46,0-3.09.03-4.86.07-1.75.03-3.53.1-5.31.15-1.78.05-3.41.1-4.89.15-1.48.05-2.69.07-3.6.07-.99,0-2.25-.03-3.8-.07-1.56-.05-3.31-.1-5.21-.15-1.93-.05-3.9-.12-5.98-.15-2.05-.05-4.07-.07-6.05-.07-1.11-.03-1.93.07-2.47.27-.52.2-.79.54-.79,1.06s.22.86.64,1.06c.45.17,1.06.27,1.88.27,1.08,0,2.15.02,3.23.1,1.06.07,1.93.2,2.54.34,1.6.32,2.86.84,3.75,1.53.89.67,1.53,1.58,1.93,2.72.37,1.11.62,2.52.69,4.2.05.91.1,1.9.15,2.91.03,1.04.07,2.27.1,3.7,0,1.43.02,3.21.02,5.36.02,2.15.02,4.82.02,7.98v53.98Z"/>
      <path class="cls-5" d="M1121.17,146.15c.3,0,.57.05.79.18.22.12.4.34.54.71l10.08,25.48c.27.77.25,1.38-.03,1.9-.3.52-.69.81-1.16.91-.64.07-1.09.22-1.31.44-.22.22-.34.52-.32.89.03.42.37.69,1.04.79.69.12,1.63.2,2.82.25,3.68.1,7.14.17,10.35.2,3.21.05,6.07.07,8.59.07,2.52.03,4.54.03,6.1.03s2.82-.05,3.63-.12c.81-.07,1.36-.2,1.63-.4s.39-.47.37-.81c0-.89-.59-1.33-1.78-1.33-.74,0-1.48-.03-2.27-.1s-1.65-.2-2.62-.34c-.59-.1-1.26-.32-2.02-.69-.77-.37-1.61-1.01-2.52-1.95-.94-.92-1.95-2.25-3.04-3.98-1.08-1.75-2.27-4.03-3.53-6.87-1.21-2.77-2.62-6.08-4.3-9.93-1.65-3.85-3.43-8-5.36-12.49-1.93-4.47-3.9-9.06-5.9-13.73-2.03-4.69-3.98-9.23-5.88-13.66-1.9-4.44-3.65-8.52-5.26-12.27-1.61-3.73-2.99-6.89-4.1-9.51-1.14-2.62-1.93-4.42-2.4-5.46-.42-.94-.81-1.7-1.16-2.3s-.72-1.01-1.14-1.28c-.4-.3-.91-.42-1.56-.42-.64-.03-1.28.37-1.88,1.19-.54.72-1.14,1.85-1.79,3.39v20.86c.07-.06.16-.09.26-.1.15.02.27.17.34.42.1.27.17.52.25.77l12.3,31.56c.07.22.07.4-.02.54-.07.12-.27.2-.57.2h-12.55v6.96h15.37ZM1105.81,84.95l-.19.46-34.08,78.67c-.86,2.13-1.75,3.98-2.67,5.51-.91,1.55-2.02,2.81-3.31,3.75-1.28.94-2.89,1.56-4.84,1.85-.59,0-1.23.02-1.93.07-.67.05-1.31.07-1.93.07-.52,0-.89.15-1.14.4-.22.25-.34.57-.34.94,0,.52.2.86.57,1.06.4.2.99.27,1.8.27,2.3,0,4.52-.05,6.64-.12,2.15-.07,3.95-.12,5.48-.2,1.51-.07,2.52-.12,2.99-.12,1.41,0,2.96.05,4.67.12,1.68.08,3.38.12,5.11.2,1.7.07,3.28.12,4.74.12.67,0,1.19-.07,1.53-.27.37-.2.54-.54.54-1.06.03-.37-.1-.69-.34-.94-.27-.25-.79-.4-1.58-.4h-1.92c-1.98,0-3.33-.32-4.1-.94-.77-.62-1.11-1.51-1.09-2.62,0-.77.15-1.85.47-3.24.3-1.38.79-2.89,1.46-4.47l6.97-17.04c.12-.37.27-.59.42-.71.15-.12.42-.18.77-.18h15.3v-6.96h-12.64c-.22,0-.4-.07-.49-.22-.1-.15-.1-.37.05-.67l12.59-31.41c.07-.25.15-.49.27-.77.05-.14.12-.24.21-.32v-20.86Z"/>
      <path class="cls-5" d="M1173.48,165.42c-.17,1.41-.47,2.84-.86,4.25-.37,1.41-.91,2.62-1.63,3.61-.71,1.01-1.65,1.61-2.84,1.78-1.01.15-1.8.22-2.39.27-.57.03-1.11.03-1.6.03-.67.03-1.19.15-1.53.37-.37.25-.54.52-.54.82.03.57.25.96.69,1.18.44.2.99.3,1.68.3,1.43,0,2.96-.05,4.62-.12,1.68-.07,3.26-.12,4.74-.2,1.48-.07,2.67-.12,3.53-.12.82,0,1.95.05,3.41.12,1.46.08,3.09.12,4.89.2,1.8.07,3.63.12,5.48.12.96,0,1.73-.1,2.27-.3.54-.22.84-.62.84-1.18,0-.3-.2-.57-.59-.82-.37-.22-.86-.34-1.48-.37-.57,0-1.21-.05-1.9-.12-.72-.1-1.6-.25-2.69-.47-1.14-.2-2.07-.57-2.84-1.14-.74-.54-1.14-1.41-1.16-2.57,0-1.01.05-1.98.12-2.91.07-.91.17-1.92.32-3.01l6.22-48.6h.44c.86,1.78,1.85,3.73,2.91,5.88,1.06,2.13,2.15,4.3,3.24,6.5,1.09,2.2,2.12,4.27,3.09,6.22.96,1.93,1.78,3.58,2.47,4.96.67,1.38,1.11,2.32,1.33,2.82.32.74.94,2,1.83,3.78.89,1.78,1.95,3.83,3.19,6.15,1.23,2.35,2.47,4.72,3.78,7.14,1.28,2.42,2.47,4.64,3.55,6.69,1.11,2.02,1.98,3.65,2.62,4.84,1.01,1.95,1.95,3.51,2.76,4.64.82,1.11,1.63,1.7,2.42,1.73.47.02.91-.15,1.36-.52.42-.37.91-1.09,1.51-2.13.57-1.01,1.36-2.52,2.32-4.47l28-55.71h.45l7.26,54.38c.22,1.75.27,3.06.15,3.88-.12.84-.37,1.33-.74,1.45-.44.15-.81.32-1.06.55-.27.22-.42.49-.42.79-.03.37.22.69.77.96.54.27,1.55.44,3.09.52,1.09.05,2.57.12,4.5.2,1.9.05,4,.12,6.3.19,2.3.05,4.54.12,6.77.18,2.22.05,4.17.1,5.85.12,1.68.03,2.86.05,3.55.05.99,0,1.8-.12,2.42-.35.64-.25.96-.62.99-1.14,0-.37-.2-.66-.59-.86-.37-.22-.86-.32-1.48-.32-.79.03-1.75-.05-2.91-.2-1.16-.15-2.67-.49-4.49-.99-1.31-.37-2.37-1.04-3.16-2-.79-.96-1.43-2.3-1.93-4-.47-1.68-.91-3.85-1.28-6.45l-11.85-77.49c-.25-1.33-.67-2.35-1.26-3.01-.59-.67-1.16-.99-1.7-.99-.59,0-1.18.25-1.75.77-.59.52-1.14,1.31-1.66,2.35l-34.97,70.52-34.97-69.64c-.59-1.11-1.09-1.98-1.53-2.54-.44-.59-.84-.99-1.23-1.18-.4-.2-.79-.3-1.23-.27-.54,0-1.06.3-1.53.84-.49.57-.81,1.38-.99,2.42l-12.89,81.64Z"/>
      <path class="cls-5" d="M1318.23,141.41c0,3.88,0,7.51-.03,10.89-.02,3.41-.07,6.47-.15,9.16-.07,2.72-.22,4.96-.42,6.76-.2,1.85-.54,3.36-1.08,4.5-.54,1.14-1.46,1.88-2.77,2.17-.59.15-1.26.27-2.03.34-.74.07-1.6.1-2.57.1-.79.03-1.36.17-1.65.44-.3.27-.45.57-.42.89,0,.44.22.77.64.99.45.22,1.06.34,1.88.34,1.36,0,2.79-.03,4.35-.1,1.56-.05,3.11-.12,4.69-.2,1.58,0,3.01-.03,4.32-.07,1.28-.05,2.32-.07,3.09-.07,1.93,0,4.12.02,6.62.1,2.5.05,5.31.12,8.5.2,3.19.15,6.74.25,10.72.32,3.98.07,8.4.12,13.29.12,1.6.03,2.87-.03,3.78-.12.91-.1,1.6-.37,2.07-.84s.84-1.23,1.11-2.3c.2-.67.39-1.6.59-2.84.2-1.23.4-2.57.57-4,.2-1.45.32-2.81.45-4.07.12-1.28.17-2.27.17-3.01.02-.71-.05-1.36-.2-1.97-.15-.62-.49-.94-.99-.99-.42,0-.74.15-.96.47-.2.3-.37.79-.52,1.45-.42,2.57-1.06,4.59-1.93,6.05-.86,1.48-2.1,2.57-3.7,3.29-1.16.49-2.47.84-3.95,1.08-1.46.22-2.94.37-4.4.45-1.48.07-2.79.1-3.95.1-4.42.03-7.88-.25-10.42-.81-2.54-.57-4.37-1.63-5.48-3.16-1.09-1.53-1.65-3.7-1.73-6.54-.02-.96-.05-2.25-.07-3.88,0-1.63,0-3.36.03-5.23,0-1.88.02-3.66.02-5.36.02-1.68.02-3.09.02-4.2v-10.08c0-.37.05-.69.15-.94.1-.25.3-.4.59-.4.69,0,1.73,0,3.16.03,1.41.03,2.99.05,4.77.1,1.75.03,3.51.07,5.23.12,1.73.05,3.26.1,4.57.17,1.31.05,2.22.1,2.72.17,1.63.15,2.91.44,3.9.91.96.45,1.73,1.01,2.25,1.68.52.69.89,1.45,1.11,2.29.15.82.25,1.63.27,2.4.05.79.12,1.53.17,2.2,0,.3.07.54.27.74.17.2.47.3.91.3.4-.03.69-.17.86-.49.2-.32.32-.69.4-1.14.05-.42.07-.81.07-1.18,0-.25.02-.69.05-1.33.03-.67.07-1.43.15-2.27.05-.86.1-1.73.17-2.59.07-.84.15-1.61.22-2.25.25-2.1.45-3.78.59-5.04.15-1.28.27-2.22.35-2.87.07-.62.1-1.06.1-1.28,0-.37-.1-.69-.3-.94-.2-.25-.45-.4-.74-.4-.27,0-.57.17-.86.47-.3.32-.72.69-1.21,1.16-.64.57-1.46,1.01-2.44,1.28-.99.3-2.25.49-3.78.64-.62.05-1.7.1-3.24.15-1.51.03-3.26.07-5.21.07-1.98.03-3.95.05-5.9.05-1.98.02-3.73.02-5.23.02h-3.24c-.37,0-.59-.15-.72-.4-.12-.25-.17-.57-.17-.94v-31.11c0-.37.07-.67.22-.86.15-.22.37-.32.67-.32.57,0,1.56,0,2.94.03,1.38.03,2.99.05,4.77.1,1.8.03,3.58.07,5.36.12,1.78.05,3.33.1,4.67.17,1.33.05,2.25.1,2.72.17,2.15.2,3.78.52,4.89.96,1.14.42,1.95.96,2.47,1.58.52.62.91,1.31,1.23,2.05.25.49.45,1.06.57,1.65.12.59.2,1.16.25,1.68.05.52.07.94.07,1.26,0,.52.05.92.2,1.21.12.27.42.42.84.42.34-.03.62-.15.81-.42.2-.25.35-.54.45-.86.1-.32.17-.59.22-.79.07-.4.15-.96.22-1.73.07-.77.15-1.6.2-2.47.07-.89.12-1.7.17-2.44.07-.74.12-1.31.15-1.65.1-1.9.25-3.41.39-4.5.17-1.08.32-1.9.45-2.42.12-.55.2-.96.2-1.23,0-.32-.05-.59-.17-.82-.12-.25-.34-.37-.71-.37-.3.03-.62.1-.99.25-.34.15-.71.25-1.08.34-.54.07-1.28.2-2.25.37-.96.15-2.02.27-3.23.37-.45.03-1.53.05-3.21.05s-3.75.03-6.2.03-5.04-.03-7.75-.03-5.36,0-7.9-.02c-2.52,0-4.72,0-6.59-.03h-3.9c-1.26,0-2.94-.03-5.01-.07-2.07-.05-4.3-.1-6.72-.15-2.42-.05-4.77-.07-7.09-.07-.96,0-1.7.07-2.2.25-.52.19-.77.49-.77.94s.22.77.62.99c.39.22.94.35,1.6.35.99,0,1.98.02,2.94.1.94.08,1.7.2,2.25.35,1.38.37,2.44.81,3.24,1.33.79.52,1.36,1.21,1.73,2.07.37.84.59,2,.67,3.41.02.77.05,1.6.07,2.47.02.86.02,1.92.05,3.14,0,1.23.03,2.74.03,4.57v38.72Z"/>
      <path class="cls-5" d="M1417.64,179.64c2.35.03,4.79-.1,7.36-.35,2.57-.27,5.09-.76,7.56-1.53,2.47-.74,4.77-1.85,6.87-3.31,3.16-2.22,5.68-4.54,7.6-6.99,1.9-2.44,3.31-5.06,4.15-7.8.86-2.74,1.31-5.66,1.28-8.77.05-3.8-.64-7.41-2.02-10.86-1.38-3.48-3.73-6.82-7.01-10.08-3.31-3.23-7.8-6.42-13.48-9.58l-5.33-2.96c-2.91-1.63-5.26-3.14-7.09-4.54-1.83-1.43-3.21-2.79-4.2-4.1-.96-1.31-1.63-2.59-1.98-3.9-.37-1.31-.54-2.64-.52-4.05.02-2.15.52-4.07,1.46-5.73.96-1.68,2.27-3.09,3.93-4.25,1.65-1.14,3.56-2.03,5.68-2.62,2.12-.59,4.37-.89,6.72-.89,2.81.02,5.16.37,7.09,1.01,1.93.64,3.48,1.41,4.69,2.32,1.21.92,2.12,1.78,2.74,2.59.94,1.11,1.65,2.22,2.15,3.33.49,1.11.82,2.12,1.01,3.01.17.89.27,1.53.25,1.95,0,1.48.44,2.22,1.33,2.22.52,0,.91-.34,1.21-1.01.27-.67.42-1.66.42-2.99,0-3.28.05-5.95.12-7.98.07-2.02.12-3.6.2-4.69.07-1.11.12-1.93.12-2.44,0-.45-.15-.79-.45-1.04-.3-.25-.74-.45-1.33-.59-1.73-.47-4.2-.94-7.36-1.38-3.18-.42-6.91-.67-11.16-.69-4.54,0-8.79.62-12.77,1.78-3.95,1.19-7.43,2.89-10.45,5.11-3.01,2.22-5.38,4.87-7.09,7.98-1.7,3.11-2.57,6.59-2.59,10.47-.02,3.68.59,7.14,1.88,10.35,1.28,3.21,3.43,6.3,6.42,9.28,2.99,2.99,7.04,5.98,12.15,8.96l7.56,4.44c2.86,1.7,5.16,3.33,6.89,4.89,1.73,1.55,3.04,3.06,3.9,4.49.86,1.46,1.43,2.87,1.7,4.27.3,1.38.42,2.77.39,4.13,0,2.99-.74,5.7-2.17,8.1-1.46,2.4-3.51,4.32-6.2,5.73-2.72,1.41-5.93,2.15-9.7,2.17-2.05,0-4.15-.2-6.27-.64-2.15-.42-4.17-1.11-6.1-2.07-1.93-.96-3.63-2.25-5.09-3.85-1.46-1.58-2.57-3.55-3.28-5.88-.37-1.14-.67-2.3-.86-3.48-.22-1.19-.32-2.2-.32-3.04.03-.47-.05-.94-.22-1.36-.17-.44-.54-.69-1.11-.71-.52.02-.91.32-1.21.91-.27.59-.42,1.36-.42,2.35-.05.55-.1,1.38-.17,2.54-.07,1.14-.17,2.5-.25,4.05-.1,1.55-.17,3.21-.22,4.94-.07,1.75-.1,3.48-.1,5.21,0,.91.05,1.65.2,2.17.12.52.37.94.74,1.23.37.32.89.62,1.58.89,1.9.84,4,1.48,6.32,1.98,2.32.47,4.74.79,7.26.99,2.54.2,5.06.3,7.61.3Z"/>
      <path class="cls-5" d="M1620.92,151.79c0-3.7,0-7.04.02-10,0-2.96.05-5.56.12-7.78.05-2.57.52-4.54,1.38-5.9.86-1.33,2.27-2.2,4.25-2.54.86-.15,1.6-.27,2.22-.34.62-.08,1.21-.1,1.78-.1s.99-.08,1.36-.27c.37-.17.54-.47.57-.91,0-.59-.25-.99-.76-1.18-.49-.22-1.23-.32-2.2-.3-1.65,0-3.56.05-5.63.12-2.1.08-4.2.12-6.25.2-2.07.08-3.88.12-5.46.12s-3.46-.05-5.83-.12c-2.37-.07-4.91-.12-7.65-.2-2.72-.07-5.38-.12-8-.12-1.04-.03-1.8.07-2.32.3-.52.2-.79.59-.79,1.18.02.44.22.74.62.91.39.2.94.27,1.6.27,1.09,0,2.15.02,3.24.1,1.06.07,1.93.19,2.54.34,1.63.34,2.89.84,3.8,1.53.91.69,1.56,1.58,1.95,2.72.37,1.14.59,2.52.62,4.2.07,2.2.12,4.74.12,7.63.03,2.87.03,6.15.03,9.85v13.93c.03,1.26-.17,2.37-.57,3.31-.4.91-1.16,1.66-2.25,2.17-1.21.54-2.52.91-3.98,1.14-1.46.25-2.94.4-4.42.44-1.51.05-2.89.05-4.2.05-6.27-.03-12.05-.94-17.36-2.74-5.31-1.8-10.07-4.37-14.3-7.71-4.2-3.31-7.8-7.28-10.77-11.9-2.96-4.59-5.21-9.71-6.77-15.33-1.58-5.63-2.37-11.63-2.37-18.03.02-6.05.57-11.38,1.68-15.98,1.11-4.57,2.69-8.54,4.74-11.88,2.02-3.33,4.42-6.15,7.21-8.44,2.59-2.13,5.21-3.83,7.8-5.06,2.62-1.26,5.18-2.17,7.7-2.77,2.52-.59,4.94-.96,7.26-1.14,2.35-.17,4.52-.25,6.57-.22,4.2.02,8.05.39,11.61,1.14,3.53.74,6.72,1.68,9.53,2.86,2.82,1.16,5.21,2.42,7.21,3.76,2.03,1.33,3.58,2.59,4.69,3.8,1.26,1.38,2.25,2.81,2.91,4.27.69,1.46,1.18,2.87,1.48,4.25.3,1.36.52,2.62.64,3.78.07.59.2,1.06.42,1.41.2.34.57.52,1.06.52.59.03,1.01-.2,1.26-.67.25-.47.37-1.28.37-2.44,0-4.59.05-8.39.17-11.38.1-2.99.22-5.36.35-7.11.15-1.73.25-3.06.37-3.93.1-.89.15-1.51.15-1.88.03-.52-.1-.94-.37-1.23-.27-.3-.84-.47-1.7-.54-1.16-.05-2.44-.18-3.85-.37-1.41-.17-2.81-.37-4.2-.62-1.36-.22-2.59-.44-3.65-.64-.77-.15-2.07-.37-3.9-.62-1.83-.27-4-.52-6.49-.79-2.47-.27-5.09-.49-7.83-.67-2.74-.2-5.41-.3-8-.3-4.15-.05-8.37.15-12.69.59-4.32.42-8.74,1.33-13.28,2.72-4.52,1.38-9.14,3.48-13.88,6.32-3.41,2.03-6.64,4.59-9.7,7.68-3.09,3.06-5.83,6.64-8.25,10.72-2.39,4.05-4.3,8.59-5.7,13.63-1.38,5.01-2.1,10.49-2.13,16.42.05,8.17,1.26,15.41,3.63,21.76,2.39,6.32,5.73,11.78,10,16.35,4.3,4.59,9.31,8.37,15.04,11.31,5.75,2.94,11.98,5.13,18.72,6.54,6.74,1.43,13.78,2.13,21.06,2.13,2.91,0,5.95-.1,9.11-.34,3.16-.22,6.3-.59,9.46-1.11,3.16-.49,6.2-1.18,9.11-2.05,2.94-.84,5.6-1.9,8.02-3.16.59-.32,1.01-.64,1.28-.96.27-.32.47-.79.54-1.43.07-.67.1-1.63.1-2.94v-16.3Z"/>
      <path class="cls-5" d="M1687.3,139.23c.25.13.5.31.74.56.42.49,1.04,1.36,1.88,2.54.84,1.18,1.83,2.59,2.94,4.22,1.14,1.6,2.32,3.33,3.61,5.14,1.28,1.8,2.57,3.55,3.88,5.28,2.4,3.26,4.59,6.1,6.59,8.52,1.98,2.42,3.88,4.47,5.68,6.13,1.83,1.65,3.65,2.94,5.51,3.88,1.11.59,2.32,1.06,3.58,1.43,1.28.37,2.79.64,4.49.84,1.7.17,3.75.25,6.15.25h12.45c.82,0,1.43-.07,1.88-.27.42-.2.64-.54.64-1.06,0-.32-.15-.62-.42-.89-.3-.27-.69-.42-1.21-.44-.49,0-.99,0-1.43-.03-.47-.05-1.04-.12-1.68-.27-.69-.1-1.65-.34-2.91-.74-1.26-.37-2.82-1.14-4.64-2.27-1.83-1.14-3.95-2.91-6.37-5.28-3.9-3.95-8.2-8.72-12.92-14.35-4.69-5.63-9.93-12-15.68-19.13,4.25-3.39,7.68-6.62,10.35-9.68,2.67-3.09,4.62-6.1,5.88-9.09,1.26-2.96,1.88-6,1.85-9.09-.02-2.12-.32-4.1-.91-5.93-.59-1.83-1.36-3.48-2.3-4.96-.94-1.48-1.93-2.77-2.99-3.88-1.04-1.09-2.05-1.93-2.99-2.57-2.35-1.51-4.89-2.67-7.66-3.43-2.76-.77-5.6-1.28-8.52-1.53-1.85-.17-3.67-.28-5.46-.33v7.22c1.64.43,3.24,1.11,4.84,2.01,1.73,1.01,3.33,2.37,4.77,4.07,1.43,1.7,2.59,3.85,3.43,6.4.86,2.57,1.31,5.61,1.33,9.16-.02,3.43-.47,6.4-1.31,8.82-.82,2.44-1.88,4.47-3.16,6.08-1.28,1.58-2.62,2.86-3.98,3.78-.71.54-1.46.96-2.22,1.26-.76.3-1.68.52-2.76.64-.29.03-.6.06-.94.08v6.94ZM1656.33,141.41c0,3.88,0,7.51-.03,10.92-.02,3.38-.07,6.45-.15,9.14-.07,2.72-.22,4.96-.42,6.76-.2,1.85-.54,3.36-1.09,4.5-.54,1.14-1.46,1.88-2.76,2.17-.59.15-1.26.27-2.03.34-.74.07-1.6.1-2.57.1-.79.03-1.36.17-1.65.44-.3.27-.45.57-.42.89,0,.44.22.77.64.99.45.22,1.06.34,1.88.34,1.33,0,2.77-.03,4.35-.07,1.55-.05,3.11-.1,4.67-.15,1.53-.05,2.91-.1,4.15-.15,1.23-.05,2.2-.07,2.84-.07.52,0,1.48.02,2.91.07,1.43.05,3.16.1,5.14.15,1.98.05,4.02.1,6.17.15,2.12.05,4.15.07,6.07.07.82,0,1.48-.12,1.95-.34.47-.22.72-.55.72-.99,0-.32-.15-.62-.42-.89-.3-.27-.69-.42-1.21-.44-.54,0-1.21-.03-1.95-.05-.74-.03-1.51-.08-2.27-.15-.77-.07-1.48-.15-2.15-.25-1.31-.2-2.3-.59-2.99-1.16-.67-.59-1.16-1.33-1.43-2.27-.3-.91-.49-2-.62-3.24-.2-1.8-.34-4.02-.44-6.72-.12-2.69-.2-5.73-.25-9.14-.02-3.39-.05-7.04-.05-10.97v-1.78c0-.37.1-.64.3-.79.2-.18.44-.25.74-.25l11.71.3c.45,0,.86.05,1.23.17.13.04.26.1.39.16v-6.94c-.92.06-2.01.09-3.26.09-1.65,0-3.38-.07-5.14-.25-1.75-.2-3.36-.49-4.79-.94-.45-.19-.74-.47-.94-.79-.17-.3-.25-.79-.25-1.43v-37.48c0-.52.07-.91.25-1.16.2-.27.49-.49.94-.62.69-.15,1.75-.27,3.14-.35,1.38-.07,2.91-.1,4.57-.1,1.56-.02,3.24.2,5.01.62.16.04.31.07.47.11v-7.22c-1.05-.03-2.08-.04-3.11-.04-1.04,0-2.44.03-4.22.05-1.8.02-3.7.05-5.75.1-2.05.05-4,.07-5.83.1-1.85.02-3.33.05-4.49.05-.69,0-1.65-.03-2.94-.05-1.28-.03-2.74-.05-4.4-.1-1.65-.05-3.36-.08-5.16-.1-1.8-.03-3.56-.05-5.28-.05-.96,0-1.7.07-2.2.25-.52.19-.77.49-.77.94s.22.77.62.99c.4.22.94.35,1.6.35.99,0,1.98.02,2.94.1.94.08,1.7.2,2.25.35,1.38.37,2.44.81,3.23,1.33.79.52,1.36,1.21,1.73,2.07.37.84.59,2,.67,3.41.02.77.05,1.6.07,2.47.03.86.03,1.92.05,3.14,0,1.23.03,2.74.03,4.57v38.72Z"/>
      <path class="cls-5" d="M1794.27,146.15c.3,0,.57.05.79.18.22.12.4.34.54.71l10.07,25.48c.27.77.25,1.38-.02,1.9-.3.52-.69.81-1.16.91-.64.07-1.09.22-1.31.44-.22.22-.35.52-.32.89.03.42.37.69,1.04.79.69.12,1.63.2,2.81.25,3.68.1,7.14.17,10.35.2,3.21.05,6.07.07,8.59.07,2.52.03,4.54.03,6.1.03s2.82-.05,3.63-.12c.81-.07,1.36-.2,1.63-.4.27-.2.4-.47.37-.81,0-.89-.59-1.33-1.78-1.33-.74,0-1.48-.03-2.27-.1-.79-.07-1.65-.2-2.62-.34-.59-.1-1.26-.32-2.02-.69-.77-.37-1.6-1.01-2.52-1.95-.94-.92-1.95-2.25-3.04-3.98-1.09-1.75-2.27-4.03-3.53-6.87-1.21-2.77-2.62-6.08-4.3-9.93-1.66-3.85-3.43-8-5.36-12.49-1.93-4.47-3.9-9.06-5.9-13.73-2.02-4.69-3.97-9.23-5.88-13.66-1.9-4.44-3.65-8.52-5.26-12.27-1.61-3.73-2.99-6.89-4.1-9.51-1.14-2.62-1.93-4.42-2.39-5.46-.42-.94-.82-1.7-1.16-2.3-.34-.59-.71-1.01-1.14-1.28-.39-.3-.91-.42-1.56-.42-.64-.03-1.28.37-1.88,1.19-.54.72-1.14,1.85-1.79,3.39v20.86c.07-.06.16-.09.26-.1.15.02.27.17.35.42.1.27.17.52.25.77l12.3,31.56c.07.22.07.4-.02.54-.08.12-.27.2-.57.2h-12.55v6.96h15.37ZM1778.9,84.95l-.19.46-34.08,78.67c-.86,2.13-1.75,3.98-2.67,5.51-.91,1.55-2.03,2.81-3.31,3.75-1.28.94-2.89,1.56-4.84,1.85-.59,0-1.23.02-1.93.07-.67.05-1.31.07-1.93.07-.52,0-.89.15-1.14.4-.22.25-.34.57-.34.94,0,.52.2.86.57,1.06.39.2.99.27,1.8.27,2.3,0,4.52-.05,6.64-.12,2.15-.07,3.95-.12,5.48-.2,1.51-.07,2.52-.12,2.99-.12,1.41,0,2.96.05,4.67.12,1.68.08,3.38.12,5.11.2,1.7.07,3.28.12,4.74.12.67,0,1.19-.07,1.53-.27.37-.2.54-.54.54-1.06.02-.37-.1-.69-.35-.94-.27-.25-.79-.4-1.58-.4h-1.93c-1.98,0-3.33-.32-4.1-.94-.77-.62-1.11-1.51-1.09-2.62,0-.77.15-1.85.47-3.24.3-1.38.79-2.89,1.46-4.47l6.96-17.04c.12-.37.27-.59.42-.71.15-.12.42-.18.77-.18h15.3v-6.96h-12.64c-.22,0-.39-.07-.49-.22-.1-.15-.1-.37.05-.67l12.59-31.41c.07-.25.15-.49.27-.77.06-.14.12-.24.21-.32v-20.86Z"/>
      <path class="cls-5" d="M1858.28,109.41h.45c.67.59,1.93,1.88,3.83,3.88,1.9,2,4.25,4.47,7.04,7.41,2.82,2.94,5.88,6.1,9.24,9.53,3.36,3.41,6.84,6.84,10.42,10.3,3.43,3.33,6.96,6.72,10.57,10.17,3.58,3.46,7.11,6.82,10.52,10.08,3.43,3.28,6.62,6.3,9.53,9.04,2.91,2.76,5.41,5.09,7.46,7.01.67.69,1.46,1.31,2.35,1.83.89.54,1.88.82,2.99.84.54,0,1.01-.3,1.43-.94.39-.64.62-1.65.64-3.06l1.48-79.42c.05-2.35.2-4.22.52-5.63.3-1.38.77-2.44,1.46-3.19.67-.71,1.58-1.23,2.77-1.55.79-.22,1.51-.35,2.12-.4.59-.05,1.23-.07,1.88-.05.74-.03,1.31-.15,1.68-.4.37-.25.54-.57.54-.94,0-.49-.27-.84-.82-.99-.52-.15-1.23-.22-2.15-.2-3.21,0-5.95.05-8.2.15-2.25.1-3.75.15-4.54.15-.96,0-2.3-.03-4.02-.07-1.73-.05-3.68-.1-5.85-.15-2.17-.05-4.42-.07-6.72-.07-.96-.03-1.75.05-2.35.2-.59.15-.89.49-.91.99,0,.37.12.69.42.94.32.25.86.37,1.66.4.62,0,1.33,0,2.12.02.82.03,1.63.07,2.47.2.81.1,1.58.27,2.22.52,1.04.37,1.88.94,2.52,1.68.62.77,1.09,1.9,1.41,3.38.3,1.48.47,3.51.52,6.05l1.33,56.01h-.59c-.42-.4-1.36-1.31-2.81-2.79-1.46-1.46-3.24-3.28-5.36-5.43-2.12-2.15-4.37-4.42-6.79-6.87-2.39-2.42-4.74-4.79-7.04-7.09-2.3-2.3-4.35-4.35-6.15-6.12-3.83-3.73-7.58-7.43-11.31-11.14-3.7-3.68-7.24-7.19-10.55-10.52-3.33-3.33-6.3-6.35-8.91-8.99-2.64-2.66-4.77-4.81-6.4-6.49-1.65-1.66-2.64-2.67-2.99-3.01-1.11-1.14-2.12-2.13-3.04-2.91-.91-.79-1.78-1.21-2.59-1.23-.67.02-1.21.42-1.61,1.21-.4.77-.62,1.8-.62,3.09l-1.19,74.67c-.03,3.63-.15,6.5-.35,8.64-.2,2.13-.57,3.7-1.14,4.72-.57.99-1.41,1.63-2.52,1.9-.91.22-1.9.37-2.96.47-1.06.08-2.05.12-2.96.12-.59,0-1.09.15-1.48.4-.37.25-.57.57-.59.94.03.57.3.94.82,1.11.54.17,1.26.25,2.15.22,2.25,0,4.37-.05,6.35-.12,1.97-.07,3.65-.12,5.04-.2,1.38-.07,2.27-.12,2.69-.12,1.21.02,3.26.1,6.17.22,2.89.12,6.47.2,10.72.22.91,0,1.63-.07,2.15-.27.54-.2.82-.54.82-1.06,0-.37-.17-.69-.54-.94-.37-.25-.94-.4-1.68-.4-1.06,0-2.17-.05-3.36-.17s-2.32-.34-3.46-.72c-.84-.27-1.58-.84-2.2-1.75-.64-.91-1.14-2.3-1.53-4.2-.37-1.88-.62-4.44-.72-7.68l-1.48-51.41Z"/>
      <path class="cls-5" d="M1993.55,141.41c0,3.88,0,7.51-.02,10.92-.02,3.38-.07,6.45-.15,9.14-.07,2.72-.22,4.96-.42,6.76-.2,1.85-.54,3.36-1.09,4.5-.54,1.14-1.46,1.88-2.77,2.17-.52.15-1.18.27-1.95.34-.79.07-1.68.1-2.64.1-.79.03-1.36.17-1.65.44-.3.27-.44.57-.42.89,0,.44.22.77.64.99.44.22,1.06.34,1.88.34,1.33,0,2.79-.03,4.44-.07,1.63-.05,3.26-.1,4.91-.15,1.65-.05,3.14-.1,4.49-.15,1.36-.05,2.42-.07,3.19-.07,1.26,0,2.99.05,5.19.12,2.2.08,4.67.12,7.41.2,2.74.07,5.56.12,8.45.12.77,0,1.36-.12,1.83-.34.45-.22.69-.55.69-.99,0-.32-.15-.62-.47-.89-.35-.27-.86-.42-1.61-.44-.64,0-1.38-.03-2.2-.05-.79-.03-1.58-.08-2.37-.15s-1.48-.15-2.1-.25c-1.26-.2-2.25-.59-2.91-1.16-.69-.57-1.19-1.31-1.48-2.22-.3-.89-.52-1.95-.64-3.13-.2-1.85-.35-4.13-.45-6.87-.12-2.72-.2-5.78-.25-9.19-.02-3.41-.05-7.04-.05-10.92v-50.97l16.45.3c3.88.07,6.91.47,9.14,1.21,2.22.74,3.8,1.65,4.74,2.74.96,1.08,1.46,2.2,1.53,3.31l.15,1.33c.07.94.2,1.6.42,1.98.2.37.57.57,1.06.54.37,0,.64-.17.82-.54.17-.34.3-.86.37-1.53,0-.84.02-1.98.05-3.38.02-1.41.05-2.89.1-4.47.05-1.58.07-3.01.1-4.35.02-1.36.05-2.37.05-3.06.03-.96-.05-1.63-.17-2.05-.15-.42-.42-.62-.86-.62-.22,0-.59.08-1.16.18-.57.12-1.36.27-2.39.42-.94.15-2.15.3-3.61.4-1.46.12-3.21.2-5.29.2h-52.89c-2.17,0-4.42-.05-6.69-.12-2.27-.1-4.4-.25-6.35-.47-1.61-.25-2.81-.57-3.65-.91-.84-.34-1.48-.54-1.98-.57-.37,0-.67.2-.91.57-.22.4-.42.99-.57,1.8-.07.22-.2.84-.39,1.78-.22.96-.45,2.1-.72,3.43-.27,1.33-.54,2.69-.79,4.07-.27,1.38-.47,2.62-.64,3.68-.17,1.08-.27,1.85-.27,2.3,0,.67.07,1.18.27,1.53.17.34.47.54.91.54s.77-.15.96-.42c.22-.3.39-.69.52-1.21.15-.47.37-1.06.72-1.83.35-.74.84-1.58,1.51-2.47.62-.94,1.43-1.68,2.44-2.22,1.01-.54,2.32-.94,3.95-1.19,1.63-.27,3.7-.39,6.2-.44l19.41-.44v50.97Z"/>
    </g>
    <g id="Tagline">
      <path class="cls-6" d="M1140.85,258.43c1.36,0,2.73-.05,4.13-.13,1.39-.08,2.72-.22,3.93-.42,1.23-.2,2.27-.46,3.1-.78.52-.19.88-.41,1.1-.64.22-.23.4-.61.51-1.11.13-.42.26-.93.39-1.54.13-.61.25-1.25.36-1.93.11-.67.21-1.32.29-1.96.09-.62.16-1.16.21-1.6.06-.45.08-.75.08-.9,0-.26-.07-.49-.19-.71-.13-.21-.3-.33-.52-.34-.23-.01-.41.08-.52.26-.11.18-.19.49-.26.93-.07.39-.21.81-.41,1.28-.19.47-.43.93-.73,1.4-.29.48-.62.91-.97,1.32-.81.9-1.71,1.58-2.72,2.04-1.01.46-2.18.76-3.51.91-1.33.15-2.91.22-4.73.21-1.67,0-3.4-.27-5.18-.82-1.78-.54-3.5-1.36-5.17-2.46-1.66-1.1-3.16-2.49-4.49-4.15-1.33-1.68-2.4-3.63-3.18-5.87-.78-2.25-1.18-4.79-1.2-7.62-.01-1.95.14-3.86.46-5.75.33-1.87.9-3.64,1.73-5.3.82-1.66,1.99-3.15,3.5-4.47.93-.8,1.96-1.44,3.07-1.93,1.12-.5,2.39-.87,3.79-1.1,1.41-.23,3.01-.34,4.8-.34,2.86.01,5.29.35,7.31,1,2.02.63,3.56,1.47,4.62,2.52.77.78,1.36,1.66,1.74,2.65.4.97.61,1.94.64,2.9,0,.39.05.7.13.93.09.22.27.34.5.34.28,0,.48-.15.61-.42.13-.27.2-.62.23-1.05.02-.3.03-.72.05-1.24.01-.51.02-1.08.04-1.69.01-.62.02-1.24.05-1.85.02-.62.05-1.17.08-1.67.05-.7.09-1.25.14-1.68.04-.42.07-.76.11-1.01.02-.26.03-.46.03-.61.01-.18-.06-.33-.19-.46-.14-.13-.37-.21-.73-.25-.91-.11-1.87-.26-2.9-.44-1.03-.18-2.12-.36-3.28-.54-.93-.11-1.83-.22-2.72-.32-.89-.11-1.84-.18-2.84-.23-1.01-.06-2.15-.08-3.43-.08-3.05,0-5.78.26-8.17.76-2.39.5-4.52,1.23-6.39,2.18-1.87.93-3.55,2.06-5.03,3.38-1.46,1.32-2.67,2.72-3.62,4.2-.95,1.48-1.68,2.95-2.21,4.43-.53,1.47-.89,2.88-1.1,4.2-.21,1.32-.32,2.5-.3,3.54-.01,1.93.2,3.93.64,5.99.44,2.06,1.24,4.07,2.36,6.06,1.12,1.99,2.7,3.85,4.72,5.57,1.87,1.56,3.92,2.82,6.12,3.77,2.21.94,4.58,1.64,7.09,2.06,2.52.43,5.18.64,7.99.63Z"/>
      <path class="cls-6" d="M1190.14,238.56c.01,2.87.26,5.3.76,7.33.49,2.03,1.16,3.71,2,5.08.84,1.37,1.79,2.49,2.86,3.39,1.13.97,2.35,1.74,3.65,2.29,1.29.56,2.59.96,3.89,1.22,1.29.26,2.5.41,3.64.48,1.14.06,2.12.1,2.94.08,1.35.01,2.74-.08,4.2-.3,1.45-.21,2.94-.63,4.42-1.24,1.5-.62,2.98-1.53,4.44-2.74,1.29-1.08,2.33-2.31,3.11-3.68.78-1.38,1.38-2.84,1.79-4.41.4-1.58.67-3.19.81-4.87.13-1.68.2-3.35.19-5.02v-6.39c0-1.8,0-3.34.01-4.61,0-1.28.01-2.34.02-3.21,0-.87.01-1.59.02-2.17.01-.57.02-1.08.05-1.49.01-.41.02-.81.04-1.17.05-.7.13-1.28.27-1.71.14-.44.36-.78.68-1.03.32-.23.75-.41,1.3-.49.37-.07.68-.13.94-.17s.55-.05.89-.05c.7,0,1.05-.21,1.05-.63,0-.21-.11-.35-.32-.44-.21-.08-.53-.12-.95-.12-.61,0-1.29.01-2.04.03-.75,0-1.49.02-2.21.04-.73.03-1.36.04-1.9.05-.54.01-.9.02-1.09.02-.02,0-.27,0-.74-.02-.46-.01-1.05-.02-1.79-.05-.73-.02-1.52-.04-2.36-.04-.85-.01-1.67-.03-2.48-.03-.42,0-.74.04-.95.12-.21.09-.32.23-.32.44,0,.42.35.63,1.05.63.37,0,.77.01,1.2.05.43.04.78.09,1.04.17.65.17,1.16.39,1.52.63.36.25.62.57.78.99.15.4.26.95.29,1.61.01.36.03.76.05,1.17.01.41.02.92.04,1.49.01.57.02,1.3.04,2.17,0,.86,0,1.93,0,3.21.01,1.27.01,2.81.01,4.61v7.51c.01,1.53-.01,3-.07,4.39-.06,1.4-.2,2.72-.43,3.95-.22,1.24-.57,2.38-1.06,3.42-.49,1.04-1.16,1.97-2.01,2.77-.82.8-1.71,1.42-2.65,1.89-.94.46-1.89.78-2.86.98-.96.2-1.88.3-2.79.29-.7,0-1.49-.04-2.35-.14-.86-.1-1.74-.32-2.67-.66-.94-.35-1.85-.88-2.77-1.59-.76-.59-1.43-1.26-2.01-2.05-.59-.77-1.08-1.71-1.47-2.81-.4-1.11-.7-2.45-.9-4.01-.21-1.57-.32-3.43-.32-5.6v-12.96c0-1.28,0-2.34.01-3.21,0-.87,0-1.59.02-2.17,0-.57.02-1.08.04-1.49.02-.41.05-.81.07-1.17.06-1.04.25-1.8.57-2.31.33-.49.88-.79,1.67-.92.37-.07.68-.13.94-.17s.55-.05.89-.05c.31,0,.56-.06.73-.16.18-.11.26-.26.26-.47s-.11-.35-.33-.44c-.21-.08-.55-.12-1.01-.12-.57,0-1.23.01-1.97.03-.75,0-1.5.02-2.26.04-.77.03-1.49.04-2.13.05-.66.01-1.18.02-1.58.02-.63,0-1.45,0-2.48-.04-1.03-.02-2.13-.04-3.32-.07-1.19-.02-2.34-.04-3.46-.04-.46,0-.8.04-1.01.12-.22.09-.33.23-.33.44,0,.42.35.63,1.05.63.43,0,.88.01,1.32.05.45.04.81.09,1.07.17.66.17,1.16.39,1.53.62.37.23.64.55.82.96.18.41.28.96.32,1.65.03.36.05.76.06,1.17,0,.41.02.92.02,1.49.01.57.01,1.3,0,2.17v3.21c-.01,1.27-.01,2.81-.01,4.61v8.77Z"/>
      <path class="cls-6" d="M1277.49,258.43c1.11.01,2.27-.05,3.49-.16,1.22-.13,2.41-.36,3.58-.73,1.17-.35,2.26-.88,3.25-1.57,1.5-1.05,2.69-2.15,3.61-3.31.9-1.16,1.57-2.4,1.97-3.7.41-1.3.62-2.68.61-4.15.02-1.8-.3-3.51-.96-5.15-.66-1.65-1.77-3.23-3.32-4.77-1.57-1.53-3.7-3.04-6.39-4.54l-2.53-1.4c-1.38-.77-2.49-1.49-3.36-2.15-.86-.68-1.52-1.32-1.99-1.94-.46-.62-.77-1.23-.94-1.85-.18-.62-.26-1.25-.25-1.92.01-1.02.25-1.93.69-2.72.46-.79,1.08-1.46,1.86-2.01.78-.54,1.69-.96,2.69-1.24,1.01-.28,2.07-.42,3.18-.42,1.33,0,2.44.18,3.36.48.91.3,1.65.67,2.22,1.1.57.43,1.01.84,1.3,1.23.45.53.78,1.05,1.02,1.58.23.53.39,1.01.48,1.43.08.42.13.73.12.93,0,.7.21,1.05.63,1.05.25,0,.43-.16.57-.48.13-.32.2-.78.2-1.42,0-1.56.02-2.82.06-3.78.03-.96.06-1.71.09-2.22.04-.53.06-.92.06-1.16,0-.21-.07-.37-.21-.49-.14-.11-.35-.21-.63-.28-.82-.22-1.99-.44-3.49-.65-1.51-.2-3.28-.32-5.29-.33-2.15,0-4.17.29-6.05.84-1.87.56-3.52,1.37-4.95,2.42-1.43,1.06-2.55,2.31-3.36,3.78-.81,1.47-1.22,3.12-1.23,4.96-.01,1.75.28,3.38.89,4.9.61,1.52,1.63,2.98,3.04,4.4,1.42,1.42,3.33,2.83,5.76,4.25l3.58,2.11c1.36.81,2.44,1.58,3.26,2.32.82.74,1.44,1.45,1.85,2.13.41.69.68,1.36.81,2.03.14.65.2,1.31.19,1.95,0,1.42-.35,2.7-1.03,3.84-.69,1.14-1.66,2.05-2.94,2.72-1.29.67-2.81,1.02-4.6,1.03-.97,0-1.97-.1-2.97-.31-1.02-.2-1.98-.53-2.89-.98s-1.72-1.06-2.41-1.83c-.69-.75-1.22-1.68-1.56-2.79-.18-.54-.32-1.09-.41-1.65-.11-.56-.15-1.04-.15-1.44.01-.22-.02-.44-.11-.64-.08-.21-.26-.33-.53-.34-.25.01-.43.15-.57.43-.13.28-.2.64-.2,1.11-.02.26-.05.66-.08,1.21-.04.54-.08,1.18-.12,1.92-.05.74-.08,1.52-.11,2.34-.04.83-.05,1.65-.05,2.47,0,.43.02.78.09,1.03.06.24.18.44.35.58.18.15.42.29.75.42.9.4,1.9.7,3,.93,1.1.22,2.25.38,3.44.47,1.2.09,2.4.14,3.6.14Z"/>
      <path class="cls-6" d="M1341.6,240.32c0,1.83,0,3.56-.01,5.17-.01,1.6-.03,3.05-.07,4.33-.04,1.29-.11,2.35-.2,3.21-.09.88-.26,1.59-.52,2.13-.26.54-.69.89-1.31,1.03-.25.07-.56.13-.92.16-.38.04-.8.05-1.25.05-.37.01-.64.08-.78.21-.14.13-.21.27-.2.42,0,.21.11.36.3.47.21.11.5.16.89.16.63,0,1.32-.01,2.11-.03.77-.02,1.55-.05,2.33-.07.78-.02,1.49-.05,2.13-.07.64-.02,1.15-.04,1.51-.04.6,0,1.42.02,2.46.06s2.21.06,3.51.1c1.3.04,2.63.06,4,.06.36,0,.64-.06.86-.16.21-.11.33-.26.33-.47,0-.15-.07-.29-.22-.42-.16-.13-.41-.2-.76-.21-.3,0-.66-.01-1.04-.02-.37-.01-.75-.03-1.12-.07-.37-.03-.7-.07-1-.11-.6-.09-1.06-.28-1.38-.55-.33-.27-.56-.62-.7-1.05-.14-.42-.25-.92-.3-1.48-.09-.88-.16-1.96-.21-3.25-.06-1.29-.09-2.74-.12-4.35-.01-1.61-.02-3.34-.02-5.17v-24.15l7.79.14c1.84.04,3.28.22,4.33.57,1.05.35,1.8.78,2.25,1.3.46.52.69,1.04.72,1.57l.07.63c.03.44.09.76.2.93.09.18.27.27.5.26.18,0,.3-.08.39-.26.08-.16.14-.41.18-.72,0-.4.01-.93.02-1.6.01-.67.02-1.37.05-2.12.02-.75.04-1.43.05-2.06.01-.64.02-1.12.02-1.45.01-.46-.02-.77-.08-.97-.07-.2-.2-.29-.41-.29-.11,0-.28.04-.55.08-.27.06-.64.13-1.14.2-.44.07-1.02.14-1.71.19-.69.06-1.52.09-2.5.09h-25.07c-1.03,0-2.09-.02-3.17-.06-1.08-.05-2.08-.12-3.01-.22-.76-.11-1.34-.27-1.73-.43-.4-.17-.7-.26-.94-.27-.18,0-.32.1-.43.27-.11.19-.2.47-.27.85-.04.11-.09.4-.19.84-.11.46-.21,1-.34,1.63-.13.63-.26,1.28-.37,1.93-.13.66-.22,1.24-.3,1.75-.08.51-.13.88-.13,1.09,0,.32.04.56.13.72.08.17.22.26.43.26s.36-.07.46-.2c.11-.14.19-.33.25-.57.07-.22.18-.5.34-.86.16-.35.4-.75.71-1.17.29-.45.68-.8,1.16-1.05.48-.26,1.1-.45,1.87-.56.77-.13,1.76-.19,2.94-.21l9.2-.21v24.15Z"/>
      <path class="cls-6" d="M1420.38,258.43c3.09-.03,5.93-.44,8.53-1.23,2.69-.81,5.09-1.96,7.2-3.43,2.11-1.48,3.9-3.23,5.37-5.26,1.47-2.03,2.6-4.26,3.37-6.72.76-2.45,1.16-5.04,1.16-7.79-.01-3.43-.6-6.52-1.76-9.27-1.16-2.74-2.84-5.09-5.03-7.03-2.2-1.94-4.86-3.43-7.96-4.46-3.11-1.04-6.62-1.56-10.53-1.57h-.35v3.23c1.95.16,3.8.63,5.54,1.41,2.15.98,4.05,2.4,5.69,4.25,1.63,1.85,2.9,4.08,3.82,6.72.91,2.63,1.38,5.59,1.39,8.91-.01,2.82-.26,5.26-.75,7.31-.48,2.05-1.13,3.77-1.95,5.18-.83,1.4-1.74,2.53-2.75,3.4-1.02.86-2.06,1.52-3.11,1.98-1.06.46-2.08.77-3.06.92-.97.17-1.83.25-2.56.24-.77,0-1.52-.05-2.25-.13v3.36ZM1420.1,258.43h.28v-3.36c-2.03-.23-3.9-.75-5.59-1.58-2.29-1.11-4.26-2.68-5.86-4.67-1.61-2-2.84-4.33-3.7-6.99-.84-2.65-1.26-5.52-1.27-8.61.01-2.94.32-5.47.89-7.57.59-2.12,1.38-3.87,2.4-5.28,1.01-1.4,2.15-2.5,3.43-3.32,1.29-.81,2.63-1.38,4.04-1.73,1.42-.34,2.81-.5,4.2-.49.5,0,.99.02,1.47.06v-3.22c-2.98.03-5.68.37-8.08,1.03-2.5.67-4.7,1.59-6.62,2.77-1.92,1.17-3.56,2.53-4.94,4.07-1.37,1.53-2.49,3.17-3.37,4.91-.88,1.74-1.52,3.52-1.93,5.33-.42,1.8-.62,3.56-.62,5.26s.21,3.58.62,5.42c.42,1.83,1.07,3.62,1.94,5.36.86,1.75,1.98,3.37,3.33,4.89,1.36,1.51,2.97,2.86,4.83,4,1.87,1.16,4.01,2.06,6.44,2.72,2.41.66,5.11.98,8.11,1Z"/>
      <path class="cls-6" d="M1480.13,251.69c-.08.67-.22,1.35-.41,2.01-.18.67-.43,1.24-.77,1.71-.34.48-.78.76-1.34.84-.48.07-.85.11-1.13.13-.27.01-.53.01-.76.01-.32.01-.56.07-.72.18-.18.11-.26.25-.26.39.01.27.12.46.33.56.21.09.47.14.79.14.68,0,1.41-.02,2.19-.06.8-.04,1.54-.06,2.25-.1.7-.04,1.26-.06,1.67-.06.39,0,.92.02,1.61.06.69.04,1.46.06,2.32.1.86.04,1.72.06,2.6.06.46,0,.82-.05,1.08-.14.26-.11.4-.29.4-.56,0-.14-.09-.27-.28-.39-.18-.11-.41-.16-.7-.18-.27,0-.57-.02-.9-.06-.34-.05-.76-.12-1.28-.22-.54-.1-.98-.27-1.34-.54-.35-.26-.54-.67-.55-1.22,0-.48.02-.94.06-1.38.04-.43.08-.91.15-1.43l2.95-23.03h.21c.41.84.88,1.76,1.38,2.79.5,1.01,1.02,2.04,1.53,3.08.52,1.04,1.01,2.03,1.46,2.95.46.91.84,1.7,1.17,2.35.32.66.53,1.1.63,1.34.15.35.44.95.86,1.79.42.84.93,1.81,1.51,2.91.59,1.11,1.17,2.24,1.79,3.38.61,1.15,1.17,2.2,1.68,3.17.53.96.94,1.73,1.24,2.29.48.92.93,1.66,1.31,2.2.39.53.77.81,1.15.82.22.01.43-.07.64-.25.2-.18.43-.51.71-1.01.27-.48.64-1.2,1.1-2.12l13.27-26.4h.21l3.44,25.77c.11.83.13,1.45.07,1.83-.06.4-.18.63-.35.69-.21.07-.39.15-.5.26-.13.11-.2.23-.2.37-.01.18.11.33.36.46.26.13.74.21,1.46.25.52.02,1.22.06,2.13.09.9.03,1.9.06,2.98.1,1.09.02,2.15.06,3.21.08,1.05.03,1.98.05,2.77.06.8,0,1.36.02,1.69.02.47,0,.85-.06,1.15-.16.3-.12.46-.29.47-.54,0-.18-.09-.32-.28-.41-.18-.1-.41-.15-.7-.15-.37.01-.83-.03-1.38-.09-.55-.07-1.26-.24-2.13-.47-.62-.18-1.12-.49-1.5-.95s-.68-1.09-.91-1.9c-.22-.8-.43-1.83-.61-3.06l-5.62-36.72c-.12-.63-.32-1.11-.6-1.43-.28-.32-.55-.47-.81-.47-.28,0-.56.12-.83.36-.28.25-.54.62-.78,1.11l-16.57,33.42-16.57-33c-.28-.53-.52-.93-.73-1.2-.21-.28-.4-.47-.59-.56-.19-.1-.37-.14-.59-.13-.26,0-.5.14-.72.4-.23.27-.39.65-.47,1.15l-6.11,38.69Z"/>
      <path class="cls-6" d="M1603.15,231.96c-.11,0-.21-.02-.29-.08-.08-.06-.13-.16-.13-.34v-6.87c0-1.49.01-2.7.01-3.65.01-.94.02-1.7.05-2.29.02-.6.05-1.12.08-1.58.05-1.04.25-1.8.57-2.31.34-.49.91-.79,1.74-.92.35-.07.67-.13.96-.17.28-.04.55-.05.8-.05.39,0,.67-.06.85-.16.18-.11.27-.26.27-.47s-.11-.35-.32-.44c-.21-.08-.53-.12-.95-.12-.63,0-1.33.01-2.12.03-.77,0-1.57.02-2.35.04-.8.03-1.52.04-2.19.05-.66.01-1.17.02-1.56.02-.58,0-1.37,0-2.36-.04-1-.02-2.08-.04-3.25-.07-1.17-.02-2.32-.04-3.44-.04-.42,0-.75.04-.98.12-.23.09-.35.23-.35.44s.11.36.29.47c.19.11.45.16.76.16.47,0,.94.01,1.39.05.45.04.81.09,1.06.17.66.17,1.16.39,1.53.63.37.25.64.57.82.99.18.4.28.95.32,1.61.01.36.02.76.04,1.17.01.41.01.92.02,1.49,0,.59.01,1.3.01,2.17v18.35c0,1.83,0,3.56-.01,5.17-.01,1.6-.03,3.05-.07,4.33-.04,1.29-.11,2.35-.2,3.21-.09.88-.26,1.59-.52,2.13-.26.54-.69.89-1.31,1.03-.28.07-.6.13-.96.16-.35.04-.76.05-1.22.05-.37.01-.64.08-.78.21-.14.13-.21.27-.2.42,0,.21.11.36.3.47.21.11.5.16.89.16.63,0,1.32-.01,2.08-.03.76-.02,1.52-.05,2.28-.07.76-.02,1.45-.05,2.08-.07.63-.02,1.12-.04,1.49-.04.61,0,1.44.02,2.49.06,1.06.04,2.25.06,3.56.1,1.31.04,2.65.06,3.99.06.39,0,.7-.06.92-.16.22-.11.34-.26.34-.47,0-.15-.07-.29-.22-.42-.16-.13-.41-.2-.76-.21-.32,0-.66-.01-1.04-.02-.37-.01-.75-.03-1.12-.07-.37-.03-.7-.07-.99-.11-.6-.09-1.07-.28-1.38-.55-.33-.27-.56-.62-.7-1.05-.14-.42-.25-.92-.3-1.48-.09-.88-.16-1.94-.21-3.22-.06-1.26-.09-2.69-.12-4.28-.01-1.59-.02-3.31-.02-5.14v-4.57c0-.14.05-.23.13-.28.08-.04.19-.07.29-.07h23.31c.08,0,.15.04.23.1.07.06.12.15.12.26v4.57c0,1.83,0,3.55-.01,5.12,0,1.59-.04,3.02-.07,4.28-.04,1.25-.11,2.31-.2,3.16-.08.88-.26,1.59-.52,2.13-.26.54-.69.89-1.31,1.03-.28.07-.6.13-.96.16-.37.04-.8.05-1.29.05-.35.01-.6.08-.75.21-.16.13-.23.27-.23.42,0,.21.12.36.35.47.23.11.56.16.98.16.61,0,1.31-.01,2.08-.03.78-.02,1.57-.05,2.36-.07s1.52-.05,2.18-.07c.66-.02,1.16-.04,1.52-.04.58,0,1.38.02,2.39.06,1.02.04,2.16.06,3.44.1,1.28.04,2.59.06,3.93.06.4,0,.7-.06.93-.16.22-.11.34-.26.34-.47,0-.15-.08-.29-.26-.42-.16-.13-.41-.2-.73-.21-.5,0-1.05-.01-1.63-.05-.59-.04-1.09-.09-1.53-.16-.62-.09-1.1-.28-1.43-.55-.34-.27-.57-.62-.71-1.05-.15-.42-.26-.92-.32-1.48-.09-.88-.15-1.96-.2-3.25-.04-1.29-.06-2.74-.07-4.35-.01-1.61-.01-3.34-.01-5.17v-15.14c0-1.28,0-2.34.01-3.21,0-.87.01-1.58.02-2.17.01-.57.02-1.08.04-1.49.02-.41.05-.81.07-1.17.06-1.04.25-1.8.57-2.31.33-.49.88-.79,1.67-.92.39-.07.72-.13,1.02-.17.29-.04.56-.05.81-.05.35,0,.63-.06.83-.16.19-.11.29-.26.29-.47s-.11-.35-.33-.44c-.21-.08-.55-.12-1.01-.12-.61,0-1.29.01-2.04.03-.75,0-1.51.02-2.27.04-.76.03-1.46.04-2.09.05-.64.01-1.15.02-1.53.02-.41,0-.97,0-1.66-.02-.7-.01-1.47-.02-2.34-.05-.85-.02-1.74-.04-2.65-.04-.91-.01-1.78-.03-2.62-.03-.46,0-.78.04-1.01.12-.22.09-.33.23-.33.44,0,.42.35.63,1.05.63.45,0,.88.01,1.32.05.46.04.81.09,1.07.17.65.17,1.16.39,1.53.63.37.25.64.57.82.99.18.4.28.95.32,1.61.02.46.04.98.06,1.58.01.6.02,1.36.04,2.29.02.95.02,2.16.04,3.65.01,1.49.01,3.36.01,5.61v1.26c0,.18-.05.28-.12.34-.08.06-.15.08-.23.08h-23.31Z"/>
      <path class="cls-6" d="M1698.08,258.43c3.09-.03,5.93-.44,8.53-1.23,2.69-.81,5.09-1.96,7.2-3.43,2.11-1.48,3.9-3.23,5.37-5.26,1.47-2.03,2.6-4.26,3.37-6.72.76-2.45,1.16-5.04,1.16-7.79-.01-3.43-.6-6.52-1.76-9.27-1.16-2.74-2.84-5.09-5.03-7.03-2.2-1.94-4.86-3.43-7.96-4.46-3.11-1.04-6.62-1.56-10.53-1.57h-.35v3.22c1.95.16,3.8.63,5.54,1.41,2.15.98,4.05,2.4,5.69,4.25,1.63,1.85,2.9,4.08,3.81,6.72.91,2.63,1.38,5.59,1.39,8.91-.01,2.82-.26,5.26-.75,7.31-.48,2.05-1.14,3.77-1.95,5.18-.83,1.4-1.74,2.53-2.75,3.4-1.02.86-2.06,1.52-3.11,1.98-1.07.46-2.08.77-3.06.92-.97.17-1.83.25-2.56.24-.77,0-1.52-.05-2.25-.13v3.36ZM1697.8,258.43h.28v-3.36c-2.03-.23-3.9-.75-5.59-1.58-2.29-1.11-4.26-2.68-5.86-4.67-1.61-2-2.84-4.33-3.7-6.99-.84-2.65-1.26-5.52-1.27-8.61.01-2.94.32-5.47.89-7.57.59-2.12,1.38-3.87,2.4-5.28,1.01-1.4,2.15-2.5,3.43-3.32,1.29-.81,2.63-1.38,4.04-1.73,1.42-.34,2.81-.5,4.2-.49.5,0,.99.02,1.47.06v-3.22c-2.98.03-5.67.37-8.07,1.03-2.5.67-4.7,1.59-6.62,2.77-1.92,1.17-3.56,2.53-4.94,4.07-1.37,1.53-2.49,3.17-3.37,4.91-.88,1.74-1.52,3.52-1.93,5.33-.42,1.8-.62,3.56-.62,5.26s.21,3.58.62,5.42c.42,1.83,1.07,3.62,1.94,5.36.87,1.75,1.98,3.37,3.33,4.89,1.36,1.51,2.97,2.86,4.83,4,1.87,1.16,4.01,2.06,6.44,2.72,2.41.66,5.11.98,8.11,1Z"/>
      <path class="cls-6" d="M1757.84,251.69c-.08.67-.22,1.35-.41,2.01-.18.67-.43,1.24-.77,1.71-.34.48-.78.76-1.35.84-.48.07-.86.11-1.14.13-.27.01-.53.01-.76.01-.32.01-.56.07-.73.18-.18.11-.26.25-.26.39.01.27.12.46.33.56.21.09.47.14.8.14.68,0,1.4-.02,2.19-.06.8-.04,1.54-.06,2.25-.1.7-.04,1.26-.06,1.67-.06s.93.02,1.62.06c.69.04,1.46.06,2.32.1.86.04,1.72.06,2.6.06.46,0,.82-.05,1.08-.14.26-.11.4-.29.4-.56,0-.14-.09-.27-.28-.39-.18-.11-.41-.16-.7-.18-.27,0-.57-.02-.9-.06-.34-.05-.76-.12-1.28-.22-.54-.1-.98-.27-1.34-.54-.35-.26-.54-.67-.55-1.22,0-.48.02-.94.06-1.38.04-.43.08-.91.15-1.43l2.95-23.03h.21c.41.84.88,1.76,1.38,2.79.5,1.01,1.02,2.04,1.53,3.08.52,1.04,1.01,2.03,1.46,2.95.46.91.84,1.7,1.17,2.35.32.66.53,1.1.63,1.34.15.35.45.95.87,1.79s.93,1.81,1.51,2.91c.58,1.11,1.17,2.24,1.79,3.38.61,1.15,1.17,2.2,1.68,3.17.53.96.94,1.73,1.24,2.29.48.92.92,1.66,1.31,2.2.39.53.77.81,1.15.82.22.01.43-.07.64-.25.2-.18.43-.51.71-1.01.27-.48.64-1.2,1.1-2.12l13.27-26.4h.21l3.44,25.77c.11.83.13,1.45.07,1.83-.06.4-.18.63-.35.69-.21.07-.39.15-.5.26-.13.11-.2.23-.2.37-.01.18.11.33.36.46.26.13.74.21,1.46.25.52.02,1.22.06,2.13.09.9.03,1.9.06,2.98.1,1.09.02,2.15.06,3.21.08,1.05.03,1.98.05,2.77.06.8,0,1.36.02,1.69.02.47,0,.85-.06,1.15-.16.3-.12.46-.29.47-.54,0-.18-.09-.32-.28-.41-.18-.1-.41-.15-.7-.15-.37.01-.83-.03-1.38-.09-.55-.07-1.26-.24-2.13-.47-.62-.18-1.12-.49-1.5-.95-.37-.46-.68-1.09-.91-1.9-.22-.8-.43-1.83-.61-3.06l-5.62-36.72c-.12-.63-.32-1.11-.6-1.43-.28-.32-.55-.47-.81-.47-.28,0-.56.12-.83.36-.28.25-.54.62-.78,1.11l-16.57,33.42-16.57-33c-.28-.53-.52-.93-.73-1.2-.21-.28-.4-.47-.59-.56-.19-.1-.37-.14-.59-.13-.26,0-.5.14-.72.4-.23.27-.39.65-.47,1.15l-6.11,38.69Z"/>
      <path class="cls-6" d="M1851.09,240.32c0,1.83,0,3.56-.01,5.16-.01,1.61-.04,3.07-.07,4.34-.04,1.29-.11,2.35-.2,3.21-.09.88-.26,1.59-.52,2.13-.26.54-.69.89-1.31,1.03-.28.07-.6.13-.96.16-.35.04-.76.05-1.22.05-.37.01-.64.08-.78.21-.14.13-.21.27-.2.42,0,.21.11.36.3.47.21.11.5.16.89.16.64,0,1.32-.01,2.06-.05.74-.02,1.47-.06,2.22-.09.75,0,1.43-.01,2.05-.04.61-.02,1.1-.04,1.46-.04.91,0,1.95.01,3.14.05,1.18.02,2.52.06,4.02.09,1.51.07,3.2.12,5.08.15,1.88.04,3.98.06,6.3.06.76.01,1.36-.01,1.79-.06.43-.05.76-.18.98-.4.22-.22.4-.58.53-1.09.09-.32.19-.76.28-1.35.09-.58.19-1.22.27-1.9.09-.69.15-1.33.21-1.93.06-.61.08-1.08.08-1.43.01-.34-.02-.64-.09-.93-.07-.29-.23-.44-.47-.47-.2,0-.35.07-.46.22-.09.14-.18.37-.25.69-.2,1.22-.5,2.18-.91,2.87-.41.7-.99,1.22-1.75,1.56-.55.23-1.17.4-1.87.51-.69.11-1.39.18-2.08.21-.7.04-1.32.05-1.87.05-2.09,0-3.73-.12-4.94-.39-1.2-.27-2.07-.77-2.6-1.5-.52-.72-.78-1.75-.82-3.1-.01-.46-.02-1.06-.04-1.83,0-.78,0-1.59.01-2.48,0-.89.01-1.73.01-2.54.01-.79.01-1.46.01-1.99v-4.78c0-.18.02-.33.07-.44.05-.12.14-.19.28-.19.33,0,.82,0,1.5.01.67,0,1.42.02,2.26.04.83.01,1.66.04,2.48.06.82.02,1.55.05,2.17.08.62.03,1.05.05,1.29.08.77.07,1.38.21,1.85.43.46.21.82.48,1.07.79.25.33.42.69.53,1.09.07.39.12.77.13,1.14.02.38.06.73.08,1.04,0,.14.04.26.13.35.08.09.22.14.43.14.19-.01.33-.08.41-.24.09-.15.15-.33.19-.54.02-.2.04-.39.04-.56,0-.11.01-.33.02-.63.01-.32.03-.68.07-1.08.02-.41.05-.82.08-1.23.04-.4.07-.76.11-1.07.12-1,.21-1.79.28-2.39.07-.61.13-1.05.16-1.36.03-.29.05-.5.05-.61,0-.18-.05-.33-.14-.45-.09-.11-.21-.19-.35-.19-.13,0-.27.08-.41.22-.14.15-.34.33-.57.55-.3.27-.69.48-1.16.61-.47.14-1.07.23-1.79.3-.29.02-.81.05-1.53.07-.71.01-1.54.04-2.47.04-.94.01-1.87.02-2.8.02-.94.01-1.77.01-2.48.01h-1.53c-.18,0-.28-.07-.34-.19-.06-.12-.08-.27-.08-.44v-14.74c0-.18.04-.32.11-.41.07-.11.18-.15.32-.15.27,0,.74,0,1.39,0,.65.01,1.42.03,2.26.05.86.01,1.7.04,2.54.06.84.03,1.58.05,2.21.08.63.02,1.07.05,1.29.08,1.02.09,1.79.25,2.32.46.54.2.93.46,1.17.75.25.29.43.62.59.97.12.23.21.5.27.78.06.28.09.55.12.79.02.25.03.44.03.6,0,.25.02.43.09.57.06.13.2.2.4.2.16-.01.29-.07.39-.2.09-.12.16-.26.21-.41.05-.15.08-.28.11-.37.04-.19.07-.46.11-.82.03-.36.07-.76.09-1.17.04-.42.06-.81.08-1.16.04-.35.06-.62.07-.78.05-.9.12-1.61.19-2.13.08-.51.15-.9.21-1.15.06-.26.09-.46.09-.59,0-.15-.02-.28-.08-.39-.06-.11-.16-.18-.34-.18-.14.01-.29.05-.47.12-.16.07-.34.12-.52.16-.26.04-.61.1-1.06.18-.46.07-.96.13-1.53.18-.21.01-.73.03-1.52.03s-1.78,0-2.94,0-2.39,0-3.67,0-2.54,0-3.74-.01c-1.19,0-2.24,0-3.13-.01h-1.85c-.6,0-1.39,0-2.38-.04-.98-.02-2.04-.04-3.18-.07-1.15-.02-2.26-.04-3.36-.04-.46,0-.81.04-1.04.12-.25.09-.36.23-.36.44s.11.36.29.47c.19.11.44.16.76.16.47,0,.93.01,1.39.05.45.04.81.09,1.07.17.66.17,1.16.39,1.53.63.37.25.64.57.82.99.18.4.28.95.32,1.61.01.36.02.76.03,1.17.01.41.01.92.02,1.49,0,.59.01,1.3.01,2.17v18.35Z"/>
      <path class="cls-6" d="M1922.85,258.43c1.11.01,2.27-.05,3.49-.16,1.22-.13,2.41-.36,3.58-.73,1.17-.35,2.26-.88,3.25-1.57,1.5-1.05,2.69-2.15,3.6-3.31.9-1.16,1.57-2.4,1.97-3.7.41-1.3.62-2.68.61-4.15.02-1.8-.3-3.51-.96-5.15-.66-1.65-1.77-3.23-3.32-4.77-1.57-1.53-3.7-3.04-6.39-4.54l-2.53-1.4c-1.38-.77-2.49-1.49-3.36-2.15-.86-.68-1.52-1.32-1.99-1.94-.46-.62-.77-1.23-.93-1.85-.18-.62-.26-1.25-.25-1.92.01-1.02.25-1.93.69-2.72.46-.79,1.08-1.46,1.86-2.01.78-.54,1.69-.96,2.69-1.24,1.01-.28,2.07-.42,3.18-.42,1.33,0,2.45.18,3.36.48.91.3,1.65.67,2.22,1.1.57.43,1.01.84,1.3,1.23.45.53.78,1.05,1.02,1.58.23.53.39,1.01.48,1.43.08.42.13.73.12.93,0,.7.21,1.05.63,1.05.25,0,.43-.16.57-.48.13-.32.2-.78.2-1.42,0-1.56.02-2.82.06-3.78.04-.96.06-1.71.09-2.22.04-.53.06-.92.06-1.16,0-.21-.07-.37-.21-.49-.14-.11-.35-.21-.63-.28-.82-.22-1.99-.44-3.49-.65-1.51-.2-3.28-.32-5.29-.33-2.15,0-4.17.29-6.05.84-1.87.56-3.52,1.37-4.95,2.42-1.43,1.06-2.55,2.31-3.36,3.78-.81,1.47-1.22,3.12-1.23,4.96-.01,1.75.28,3.38.89,4.9.61,1.52,1.63,2.98,3.04,4.4s3.34,2.83,5.76,4.25l3.58,2.11c1.36.81,2.44,1.58,3.26,2.32.82.74,1.44,1.45,1.85,2.13.41.69.68,1.36.81,2.03.14.65.2,1.31.19,1.95,0,1.42-.35,2.7-1.03,3.84-.69,1.14-1.66,2.05-2.94,2.72-1.29.67-2.81,1.02-4.6,1.03-.97,0-1.97-.1-2.97-.31-1.02-.2-1.98-.53-2.89-.98s-1.72-1.06-2.41-1.83c-.69-.75-1.22-1.68-1.56-2.79-.18-.54-.32-1.09-.41-1.65-.11-.56-.15-1.04-.15-1.44.01-.22-.02-.44-.11-.64-.08-.21-.26-.33-.53-.34-.24.01-.43.15-.57.43-.13.28-.2.64-.2,1.11-.02.26-.05.66-.08,1.21-.03.54-.08,1.18-.12,1.92-.05.74-.08,1.52-.11,2.34-.04.83-.05,1.65-.05,2.47,0,.43.02.78.09,1.03.06.24.18.44.35.58.18.15.42.29.75.42.9.4,1.9.7,3,.93,1.1.22,2.25.38,3.44.47,1.2.09,2.4.14,3.6.14Z"/>
    </g>
  </g>
</svg>